<svg xmlns="http://www.w3.org/2000/svg" width="102.988" height="95.4" viewBox="0 0 102.988 95.4">
  <g id="Group_7" data-name="Group 7" transform="translate(0.004)">
    <g id="Group_5" data-name="Group 5" transform="translate(0 68.67)">
      <path id="Path_13" data-name="Path 13" d="M228.175,301.184h-2.3s-.025-16.761,0-18.015c.03-1.742-1.28-1.872-1.28-1.872s3.577-1.55,3.577,2V293.56a7.511,7.511,0,0,0,3.381-6.21l2.48-.029c0,2.794-2.4,5.72-2.4,5.72s.362,6.186,5.975,8.143c-7.617.642-8.219-5.569-8.219-5.569-.7.8-1.032,1.248-1.217,1.455Z" transform="translate(-224.599 -280.96)" fill="#15bf74"/>
      <path id="Path_14" data-name="Path 14" d="M268.483,310.3h0a4.135,4.135,0,0,1-2.389,1.282l-.145.028a6.854,6.854,0,0,1-1.3.117,7.07,7.07,0,0,1-1.314-.117l-.135-.028a5.224,5.224,0,0,1-3.31-2.092,7.8,7.8,0,0,1,.011-8.324,5.219,5.219,0,0,1,3.342-2.082l.132-.029a7.8,7.8,0,0,1,1.274-.1,8.01,8.01,0,0,1,1.283.1l.118.029a4.285,4.285,0,0,1,2.429,1.419v-1.54a2.036,2.036,0,0,1,2.117,2.286v6.826s-.119,3.278.714,3.649A3.222,3.222,0,0,1,268.483,310.3Zm-3.83-9.243a3.627,3.627,0,0,0-2.851,1.113,5.611,5.611,0,0,0,0,6.336,4.24,4.24,0,0,0,5.673.025,4.569,4.569,0,0,0,1.008-3.1v-.194a4.516,4.516,0,0,0-1.008-3.088,3.636,3.636,0,0,0-2.822-1.1Z" transform="translate(-244.572 -291.497)" fill="#15bf74"/>
      <path id="Path_15" data-name="Path 15" d="M340.261,311.921a5.26,5.26,0,0,1-3.336-2.109,7.884,7.884,0,0,1,.015-8.378,5.259,5.259,0,0,1,3.358-2.1l.135-.026a7.6,7.6,0,0,1,1.282-.108,7.814,7.814,0,0,1,1.291.108l.125.026a4.339,4.339,0,0,1,2.439,1.43v-1.551s2.136.072,2.136,2.749v9.957c0,1.959-.222,3.388-1.353,4.584-3.824,4.036-9.083.649-9.39-1.691-.034-.263.181-.518.335-.3.872,1.232,5.122,3,7.539.3a4.863,4.863,0,0,0,.732-3.71v-.6a4.369,4.369,0,0,1-2.4,1.426l-.145.029a7,7,0,0,1-1.309.12,7.232,7.232,0,0,1-1.323-.12Zm1.454-10.6a3.65,3.65,0,0,0-2.868,1.121,5.644,5.644,0,0,0,0,6.381,4.275,4.275,0,0,0,5.71.025,4.594,4.594,0,0,0,1.013-3.12v-.2a4.548,4.548,0,0,0-1.013-3.108,3.667,3.667,0,0,0-2.842-1.1Z" transform="translate(-289.694 -291.648)" fill="#15bf74"/>
      <path id="Path_16" data-name="Path 16" d="M380.24,311.879a5.422,5.422,0,0,1-2.468-.546,4.925,4.925,0,0,1-2.2-2.252,7.943,7.943,0,0,1-.79-3.632v-6.415a1.917,1.917,0,0,1,2.137,2.04v4.375a5.151,5.151,0,0,0,.853,3.19,3.318,3.318,0,0,0,4.86.094,4.8,4.8,0,0,0,.918-2.949h.011v-6.75s2.122.094,2.122,1.609v8.541a3.241,3.241,0,0,0,.891,2.7,3.753,3.753,0,0,1-3.014-1.2,3.654,3.654,0,0,1-.865.654,5.388,5.388,0,0,1-2.455.541Z" transform="translate(-312.57 -291.545)" fill="#15bf74"/>
      <path id="Path_17" data-name="Path 17" d="M303.753,299.03a5.451,5.451,0,0,1,2.466.544,4.915,4.915,0,0,1,2.2,2.257,7.892,7.892,0,0,1,.788,3.627v6.419a1.919,1.919,0,0,1-2.135-2.042v-4.377a5.1,5.1,0,0,0-.855-3.187,3.309,3.309,0,0,0-4.854-.1,4.8,4.8,0,0,0-.923,2.951h-.009v6.751s-2.121-.1-2.121-1.613v-8.54a3.235,3.235,0,0,0-.893-2.694,3.754,3.754,0,0,1,3.015,1.2,3.83,3.83,0,0,1,.867-.655A5.423,5.423,0,0,1,303.753,299.03Z" transform="translate(-267.253 -291.545)" fill="#15bf74"/>
      <path id="Path_18" data-name="Path 18" d="M450.193,311.879a5.4,5.4,0,0,1-2.463-.546,4.939,4.939,0,0,1-2.2-2.252,7.9,7.9,0,0,1-.786-3.632v-6.415a1.915,1.915,0,0,1,2.134,2.04v4.375a5.113,5.113,0,0,0,.856,3.19,2.922,2.922,0,0,0,2.463,1.106,2.952,2.952,0,0,0,2.389-1.013,4.749,4.749,0,0,0,.92-2.949h.012v-6.75s2.125.094,2.125,1.609v8.541a3.242,3.242,0,0,0,.89,2.7,3.755,3.755,0,0,1-3.016-1.2,3.636,3.636,0,0,1-.864.654A5.392,5.392,0,0,1,450.193,311.879Z" transform="translate(-353.549 -291.545)" fill="#15bf74"/>
      <path id="Path_19" data-name="Path 19" d="M417.713,298.957a5.276,5.276,0,0,1,2.477.549,3.366,3.366,0,0,1-.161,2.779,2.293,2.293,0,0,0-2.316-1.185,2.959,2.959,0,0,0-2.4,1.021,4.78,4.78,0,0,0-.927,2.961h-.012v6.786s-2.134-.1-2.134-1.618v-8.581c0-1.561-.416-2.323-.9-2.712a3.773,3.773,0,0,1,3.029,1.207,3.816,3.816,0,0,1,.871-.657,5.424,5.424,0,0,1,2.473-.55Z" transform="translate(-333.988 -291.502)" fill="#15bf74"/>
    </g>
    <g id="Group_6" data-name="Group 6" transform="translate(32.094)">
      <path id="Path_20" data-name="Path 20" d="M160.958,336.25a5.547,5.547,0,0,1-.582-.156c-.942-.365-6.49-1.629-10.337-2.865-1.742.553-8.38,2.261-10.071,2.637-.037.019-.087.045-.115.062a2.439,2.439,0,0,0-1.12,2.079,2.86,2.86,0,0,0,.187,1.046c3.914,2.335,7.841,4.355,11.369,6.4,3.649-2.121,7.76-4.078,10.961-5.989a2.524,2.524,0,0,0,.576-1.871,1.915,1.915,0,0,0-.868-1.343Z" transform="translate(-131.034 -291.172)" fill="#15bf74"/>
      <path id="Path_21" data-name="Path 21" d="M152.673,258.583a5.577,5.577,0,0,0-1.671-.3h-.22a5.571,5.571,0,0,0-1.672.3c1-8.534-8.714-10.063-8.714-10.063a14.326,14.326,0,0,1,2.957,7.564,5.36,5.36,0,0,0,3.6,4.519s-2,2.475-2.505,3.312a4.071,4.071,0,0,0-.371,3.823c.51,1.333,4.831,8.147,4.831,8.147a2.261,2.261,0,0,0,1.908,1.177h.151a2.249,2.249,0,0,0,1.9-1.177s4.327-6.815,4.84-8.147a4.089,4.089,0,0,0-.372-3.823c-.512-.838-2.5-3.312-2.5-3.312a5.359,5.359,0,0,0,3.6-4.519,14.31,14.31,0,0,1,2.955-7.564S151.673,250.05,152.673,258.583Zm-7.525-3.012a5.169,5.169,0,0,1,1.943,3.69s-1.791-.6-1.943-3.689Zm9.548,3.69a5.175,5.175,0,0,1,1.936-3.69c-.147,3.095-1.932,3.691-1.932,3.691Z" transform="translate(-131.871 -248.52)" fill="#15bf74"/>
      <path id="Path_22" data-name="Path 22" d="M182.12,351.051c.059-2.92-1.907-5.538-4.218-5.6h-.069c-.852,0-12.123,6.045-14.159,6.746,3.505,2.367,6.875,4.688,8.164,5.413a44.978,44.978,0,0,0,4.99-1C180.085,355.972,182.056,353.9,182.12,351.051Z" transform="translate(-143.592 -297.326)" fill="#15bf74"/>
      <path id="Path_23" data-name="Path 23" d="M127.9,345.791l-.04.007-.074-.012c-.031-.008-.059-.013-.092-.02l-.066-.013c-.062-.005-.111-.007-.168-.007a1.436,1.436,0,0,1-.221-.013c-2.2.07-4.072,2.612-4.017,5.456.064,2.78,1.975,4.8,5.11,5.415l.02.005h.016c1.889.554,18.364,1.088,23.1,1.143C149.4,356.568,128.8,345.928,127.9,345.791Z" transform="translate(-123.226 -297.468)" fill="#15bf74"/>
      <path id="Path_24" data-name="Path 24" d="M160.952,312.349a33.894,33.894,0,0,0-5.331-8.278,26.485,26.485,0,0,1,2.115-7.784c.091-.169.031-.292-.126-.292a.5.5,0,0,0-.21.058,10.313,10.313,0,0,0-4.555,4.9c-1.409-1.483-2.512-2.523-2.857-2.843a4.39,4.39,0,0,0-.391-.3c-.713,1.148-1.3,2.087-1.491,2.379a3.032,3.032,0,0,1-2.618,1.575h-.049a.455.455,0,0,1-.086,0,3.028,3.028,0,0,1-2.6-1.575c-.169-.269-.681-1.075-1.313-2.091-.153.1-.307.192-.447.3-4.95,3.609-9.557,10.509-10.908,12.951-1.083,1.966-.626,4.9,2.312,4.9a5.283,5.283,0,0,0,1.1-.122c3.836-.786,3.334-.75,11.921-3.495,8.277,2.673,8.756,2.682,10.629,3.4a5.8,5.8,0,0,0,1.992.339C160.055,316.378,162.177,315.389,160.952,312.349Zm-12.829-3.274a9.112,9.112,0,0,0-2.267-4.716l-.18-.186h0l-.178.186a9,9,0,0,0-2.264,4.716l-6.732,1.661,5.644-2.43.029-.117a13.563,13.563,0,0,1,3.5-5.2,11.655,11.655,0,0,1,3.506,5.2l.029.117,5.647,2.43Z" transform="translate(-126.408 -272.425)" fill="#15bf74"/>
    </g>
  </g>
</svg>
